{
    "accessors": {
        "accessor_buffer_Cylinder_0": {
            "bufferView": "bufferView_buffer_Cylinder_0",
            "byteOffset": 0,
            "byteStride": 44,
            "componentType": 5126,
            "count": 2412,
            "max": [
                7.62939453125e-06,
                96.73951721191406,
                2.0052108764648438
            ],
            "min": [
                -38.70562744140625,
                -0.024532318115234375,
                -6.214940547943115
            ],
            "type": "VEC3"
        },
        "accessor_buffer_Cylinder_1": {
            "bufferView": "bufferView_buffer_Cylinder_0",
            "byteOffset": 12,
            "byteStride": 44,
            "componentType": 5126,
            "count": 2412,
            "max": [
                0.9999999403953552,
                1.0,
                1.0
            ],
            "min": [
                -1.0,
                -1.0,
                -1.0
            ],
            "type": "VEC3"
        },
        "accessor_buffer_Cylinder_2": {
            "bufferView": "bufferView_buffer_Cylinder_0",
            "byteOffset": 24,
            "byteStride": 44,
            "componentType": 5126,
            "count": 2412,
            "max": [
                1.0,
                1.0
            ],
            "min": [
                0.0,
                0.0
            ],
            "type": "VEC2"
        },
        "accessor_buffer_Cylinder_3": {
            "bufferView": "bufferView_buffer_Cylinder_0",
            "byteOffset": 32,
            "byteStride": 44,
            "componentType": 5126,
            "count": 2412,
            "max": [
                1.0,
                1.0,
                1.0
            ],
            "min": [
                1.0,
                1.0,
                1.0
            ],
            "type": "VEC3"
        },
        "accessor_buffer_Cylinder_4": {
            "bufferView": "bufferView_buffer_Cylinder_1",
            "byteOffset": 0,
            "byteStride": 2,
            "componentType": 5123,
            "count": 3684,
            "max": [
                2411
            ],
            "min": [
                0
            ],
            "type": "SCALAR"
        }
    },
    "asset": {
        "profile": {
            "api": "WebGL",
            "version": "1.0.3"
        },
        "version": "1.0"
    },
    "bufferViews": {
        "bufferView_buffer_Cylinder_0": {
            "buffer": "buffer_combined",
            "byteLength": 106128,
            "byteOffset": 0,
            "target": 34962
        },
        "bufferView_buffer_Cylinder_1": {
            "buffer": "buffer_combined",
            "byteLength": 7368,
            "byteOffset": 106128,
            "target": 34963
        }
    },
    "buffers": {
        "buffer_combined": {
            "byteLength": 113496,
            "type": "arraybuffer",
            "uri": "buffer_combined.bin"
        }
    },
    "extensions": {
        "KHR_materials_common": {
            "lights": {}
        }
    },
    "extensionsUsed": [
        "KHR_materials_common"
    ],
    "materials": {
        "material_Material": {
            "extensions": {
                "KHR_materials_common": {
                    "technique": "PHONG",
                    "values": {
                        "ambient": [
                            1.0,
                            1.0,
                            1.0,
                            1.0
                        ],
                        "diffuse": [
                            0.64000004529953,
                            0.64000004529953,
                            0.64000004529953,
                            1.0
                        ],
                        "doubleSided": false,
                        "emission": [
                            0.0,
                            0.0,
                            0.0,
                            1.0
                        ],
                        "shininess": 50,
                        "specular": [
                            0.5,
                            0.5,
                            0.5,
                            1.0
                        ],
                        "transparency": 1.0,
                        "transparent": false
                    }
                }
            },
            "name": "Material"
        }
    },
    "meshes": {
        "mesh_Cylinder": {
            "name": "Cylinder",
            "primitives": [
                {
                    "attributes": {
                        "COLOR_0": "accessor_buffer_Cylinder_3",
                        "NORMAL": "accessor_buffer_Cylinder_1",
                        "POSITION": "accessor_buffer_Cylinder_0",
                        "TEXCOORD_0": "accessor_buffer_Cylinder_2"
                    },
                    "indices": "accessor_buffer_Cylinder_4",
                    "material": "material_Material",
                    "mode": 4
                }
            ]
        }
    },
    "nodes": {
        "node_Cylinder": {
            "children": [],
            "matrix": [
                0.051672086119651794,
                0.0,
                0.0,
                0.0,
                0.0,
                -2.2586585934902814e-09,
                0.051672086119651794,
                0.0,
                0.0,
                -0.051672086119651794,
                -2.2586585934902814e-09,
                0.0,
                1.0,
                0.003613382577896118,
                0.0012676715850830078,
                1.0
            ],
            "meshes": [
                "mesh_Cylinder"
            ],
            "name": "Cylinder"
        }
    },
    "samplers": {
        "sampler_default": {}
    },
    "scene": "scene_Scene",
    "scenes": {
        "scene_Scene": {
            "extras": {
                "active_camera": null,
                "background_color": [
                    0.05087608844041824,
                    0.05087608844041824,
                    0.05087608844041824
                ],
                "frames_per_second": 24
            },
            "name": "Scene",
            "nodes": [
                "node_Cylinder"
            ]
        }
    }
}
