# Blender v2.78 (sub 0) OBJ File: 'Museum.blend'
# www.blender.org
mtllib Museum.mtl
o Plane_Plane.001
v -6.145479 0.000000 -1.107512
v -5.984813 0.000000 -1.107512
v -6.145479 0.000000 -1.268178
v -5.984813 0.000000 -1.268178
v -2.944687 0.000000 -1.107512
v -2.944687 0.000000 -1.268178
v -6.145479 0.000000 1.256383
v -5.984813 0.000000 1.256383
v -5.984813 0.000000 1.145484
v -6.145479 0.000000 1.145484
v -2.950516 0.000000 1.256383
v -2.950516 0.000000 1.145484
v -3.032209 0.000000 1.145484
v -3.032209 0.000000 1.256383
v -2.950516 0.000000 0.205028
v -3.032209 0.000000 0.205028
v -3.017627 0.000000 -1.268178
v -3.017627 0.000000 -1.107512
v -2.944687 0.000000 -1.107512
v -3.017627 0.000000 -1.107512
v -2.944687 0.000000 -0.413792
v -3.017627 0.000000 -0.413792
v -2.944687 0.000000 -0.498321
v -3.017627 0.000000 -0.498321
v -2.944687 0.000000 -0.413792
v -2.944687 0.000000 -0.498321
v -3.032209 0.000000 0.283727
v -2.950516 0.000000 0.283727
v -2.379217 0.000000 0.205028
v -2.379217 0.000000 0.283727
v -2.382132 0.000000 -0.413792
v -2.382132 0.000000 -0.498321
v -2.458312 0.000000 -0.498321
v -2.458312 0.000000 -0.413792
v -2.382132 0.000000 -1.833295
v -2.458312 0.000000 -1.833295
v -2.458312 0.000000 -1.763340
v -2.382132 0.000000 -1.763340
v 2.535356 0.000000 -1.833295
v 2.535356 0.000000 -1.763340
v 2.585723 0.000000 -1.833295
v 2.585723 0.000000 -1.763340
v 2.535356 0.000000 -0.297708
v 2.585723 0.000000 -0.297708
v 2.535356 0.000000 1.770133
v 2.585723 0.000000 1.770133
v -2.452461 0.000000 0.205028
v -2.452461 0.000000 0.283727
v -2.379217 0.000000 1.825444
v -2.452461 0.000000 1.825444
v -2.379217 0.000000 1.713720
v -2.452461 0.000000 1.713720
v -0.441052 0.000000 1.825444
v -0.441052 0.000000 1.713720
v 2.535356 0.000000 1.828423
v 2.585723 0.000000 1.828423
v 0.400510 0.000000 1.770133
v 0.400510 0.000000 1.828423
v 2.585723 0.000000 1.706882
v 2.535356 0.000000 1.706882
v 0.405367 0.000000 1.770133
v 0.405367 0.000000 1.706882
v 0.401993 0.000000 1.770133
v 0.401993 0.000000 1.706882
v 0.400307 0.000000 1.770133
v 0.400307 0.000000 1.706882
v -6.145479 2.140026 -1.268178
v -6.145479 2.140026 -1.107512
v -5.984813 2.140026 -1.107512
v -5.984813 2.140026 -1.268178
v -2.944687 2.140026 -1.107512
v -2.944687 2.140026 -1.268178
v -3.017627 2.140026 -1.268178
v -3.017627 2.140026 -1.107512
v -6.145479 2.140026 1.256383
v -5.984813 2.140026 1.256383
v -5.984813 2.140026 1.145484
v -6.145479 2.140026 1.145484
v -2.950516 2.140026 1.256383
v -2.950516 2.140026 1.145484
v -3.032209 2.140026 1.145484
v -3.032209 2.140026 1.256383
v -2.950516 2.140026 0.205028
v -3.032209 2.140026 0.205028
v -3.032209 2.140026 0.283727
v -2.950516 2.140026 0.283727
v -3.017627 2.140026 -1.107512
v -2.944687 2.140026 -1.107512
v -3.017627 2.140026 -0.413792
v -2.944687 2.140026 -0.413792
v -2.944687 2.140026 -0.498321
v -3.017627 2.140026 -0.498321
v -2.944687 2.140026 -0.413792
v -2.944687 2.140026 -0.498321
v -2.379217 2.140026 0.283727
v -2.379217 2.140026 0.205028
v -2.452461 2.140026 0.205028
v -2.452461 2.140026 0.283727
v -2.382132 2.140026 -0.413792
v -2.382132 2.140026 -0.498321
v -2.458312 2.140026 -0.498321
v -2.458312 2.140026 -0.413792
v -2.382132 2.140026 -1.833295
v -2.458312 2.140026 -1.833295
v -2.458312 2.140026 -1.763340
v -2.382132 2.140026 -1.763340
v 2.535356 2.140026 -1.763340
v 2.535356 2.140026 -1.833295
v 2.585723 2.140026 -1.763340
v 2.585723 2.140026 -1.833295
v 2.535356 2.140026 -0.297708
v 2.585723 2.140026 -0.297708
v 2.535356 2.140026 1.770133
v 2.585723 2.140026 1.770133
v 2.585723 2.140026 1.706882
v 2.535356 2.140026 1.706882
v -2.452461 2.140026 1.825444
v -2.379217 2.140026 1.825444
v -2.379217 2.140026 1.713720
v -2.452461 2.140026 1.713720
v -0.441052 2.140026 1.825444
v -0.441052 2.140026 1.713720
v 2.535356 2.140026 1.828423
v 2.585723 2.140026 1.828423
v 0.400510 2.140026 1.770133
v 0.400510 2.140026 1.828423
v 0.405367 2.140026 1.706882
v 0.405367 2.140026 1.770133
v 0.401993 2.140026 1.706882
v 0.401993 2.140026 1.770133
v 0.400307 2.140026 1.706882
v 0.400307 2.140026 1.770133
v -0.999916 2.059653 0.961294
v -2.388073 2.100257 0.847093
v -0.999916 2.154514 0.961294
v -2.388073 2.100257 0.351135
v -2.379217 0.000000 0.868505
v -2.452461 0.000000 0.868505
v -2.379217 2.140026 0.868505
v -2.452461 2.140026 0.868505
v -2.388073 2.100257 1.015365
v -2.388073 2.100257 0.734570
v -3.007060 2.100257 -0.438914
v -3.007060 2.100257 -1.203204
v -2.979507 -0.052818 -0.433404
v -2.979507 -0.052818 -1.197693
v -0.999916 2.154514 -1.038706
v -0.999916 2.059653 -1.038706
v 1.000083 2.154514 0.961294
v 1.000083 2.059653 0.961294
v 1.000083 2.154514 -1.038706
v 1.000083 2.059653 -1.038706
v -0.999916 2.059653 -1.038706
v -0.999916 2.154514 -1.038706
v -0.999916 2.059653 0.961294
v -0.999916 2.154514 0.961294
v 1.000083 2.059653 -1.038706
v 1.000083 2.154514 -1.038706
v 1.000083 2.059653 0.961294
v 1.000083 2.154514 0.961294
v -0.999916 2.154514 1.825095
v -0.999916 2.059653 1.825095
v 1.000083 2.059653 1.825095
v 1.000083 2.154514 1.825095
v -2.385360 2.154514 0.961294
v -2.385360 2.059653 0.961294
v -2.385360 2.154514 1.825095
v -2.385360 2.059653 1.825095
v -2.427532 2.059653 -1.038706
v -2.427532 2.154514 -1.038706
v -2.427532 2.059653 0.961294
v -2.427532 2.154514 0.961294
v 2.571766 2.059653 0.961294
v 2.571766 2.154514 0.961294
v 2.571766 2.059653 1.825095
v 2.571766 2.154514 1.825095
v 1.000083 2.059653 -1.797633
v 1.000083 2.154514 -1.797633
v 2.571766 2.059653 -1.797633
v 2.571766 2.154514 -1.797633
v -0.999916 2.059653 -1.807404
v -0.999916 2.154514 -1.807404
v 1.000083 2.059653 -1.807404
v 1.000083 2.154514 -1.807404
v -2.407909 2.059653 -1.038706
v -2.407909 2.154514 -1.038706
v -2.407909 2.059653 -1.807404
v -2.407909 2.154514 -1.807404
v -0.999916 2.059653 -0.437869
v -0.999916 2.154514 -0.437869
v 1.000083 2.059653 -0.437869
v 1.000083 2.154514 -0.437869
v -2.427532 2.059653 -0.437869
v -2.427532 2.154514 -0.437869
v -0.999916 2.154514 0.228506
v 1.000083 2.059653 0.228506
v -2.427532 2.154514 0.228506
v -0.999916 2.059653 0.228506
v 1.000083 2.154514 0.228506
v -2.427532 2.059653 0.228506
v -4.426656 2.059653 0.228506
v -4.426656 2.059653 -0.437869
v -4.426656 2.154514 -0.437869
v -4.426656 2.154514 0.228506
v -6.059643 2.059653 0.228506
v -6.059643 2.059653 -0.437869
v -6.059643 2.154514 -0.437869
v -6.059643 2.154514 0.228506
v -4.426656 2.154514 1.216065
v -4.426656 2.059653 1.216065
v -6.059643 2.154514 1.216065
v -6.059643 2.059653 1.216065
v -4.426656 2.154514 -1.260449
v -4.426656 2.059653 -1.260449
v -6.059643 2.154514 -1.260449
v -6.059643 2.059653 -1.260449
v -2.974639 2.154514 -0.437869
v -2.974639 2.059653 -0.437869
v -2.974639 2.154514 -1.260449
v -2.974639 2.059653 -1.260449
v -2.976115 2.154514 0.228506
v -2.976115 2.059653 0.228506
v -2.976115 2.154514 1.216065
v -2.976115 2.059653 1.216065
v -0.664023 2.059653 -1.038706
v -0.664023 2.154514 -1.038706
v -0.664023 2.059653 0.961294
v -0.664023 2.154514 0.961294
v -0.999916 2.059653 -0.836914
v -0.999916 2.154514 -0.836914
v 1.000083 2.059653 -0.836914
v 1.000083 2.154514 -0.836914
v 0.802238 2.059653 0.961294
v 0.802238 2.154514 0.961294
v 0.802238 2.059653 -1.797633
v 0.802238 2.154514 -1.797633
v -0.999916 2.154514 0.961294
v -0.999916 2.059653 0.961294
v 1.000083 2.059653 0.961294
v 1.000083 2.154514 0.961294
v -0.999916 2.154514 0.529586
v -0.999916 2.059653 0.529586
v 1.000083 2.059653 0.529586
v 1.000083 2.154514 0.529586
vn 0.0000 -1.0000 0.0000
vn 0.0000 0.0000 1.0000
vn 0.0000 1.0000 0.0000
vn 1.0000 0.0000 0.0000
vn 0.0000 0.0000 -1.0000
vn -1.0000 0.0000 0.0000
vn 0.9999 0.0128 0.0000
usemtl None
s off
f 1//1 3//1 4//1 2//1
f 17//1 6//1 5//1 18//1
f 9//1 8//1 7//1 10//1
f 2//1 9//1 10//1 1//1
f 13//1 12//1 11//1 14//1
f 9//1 13//1 14//1 8//1
f 27//1 16//1 15//1 28//1
f 4//1 17//1 18//1 2//1
f 23//1 21//1 22//1 24//1
f 19//1 23//1 24//1 20//1
f 23//2 26//2 25//2 21//2
f 13//1 27//1 28//1 12//1
f 47//1 29//1 30//1 48//1
f 33//1 32//1 31//1 34//1
f 26//1 33//1 34//1 25//1
f 37//1 36//1 35//1 38//1
f 33//1 37//1 38//1 32//1
f 35//1 39//1 40//1 38//1
f 39//1 41//1 42//1 40//1
f 42//1 44//1 43//1 40//1
f 59//1 46//1 45//1 60//1
f 15//1 47//1 48//1 28//1
f 51//1 49//1 50//1 52//1
f 137//1 51//1 52//1 138//1
f 51//1 54//1 53//1 49//1
f 46//1 56//1 55//1 45//1
f 55//1 58//1 57//1 45//1
f 44//1 59//1 60//1 43//1
f 45//1 61//1 62//1 60//1
f 61//1 63//1 64//1 62//1
f 63//1 65//1 66//1 64//1
f 68//3 69//3 70//3 67//3
f 73//3 74//3 71//3 72//3
f 77//3 78//3 75//3 76//3
f 69//3 68//3 78//3 77//3
f 81//3 82//3 79//3 80//3
f 77//3 76//3 82//3 81//3
f 85//3 86//3 83//3 84//3
f 70//3 69//3 74//3 73//3
f 91//3 92//3 89//3 90//3
f 88//3 87//3 92//3 91//3
f 91//2 90//2 93//2 94//2
f 81//3 80//3 86//3 85//3
f 97//3 98//3 95//3 96//3
f 101//3 102//3 99//3 100//3
f 94//3 93//3 102//3 101//3
f 105//3 106//3 103//3 104//3
f 101//3 100//3 106//3 105//3
f 103//3 106//3 107//3 108//3
f 108//3 107//3 109//3 110//3
f 109//3 107//3 111//3 112//3
f 115//3 116//3 113//3 114//3
f 83//3 86//3 98//3 97//3
f 119//3 120//3 117//3 118//3
f 139//3 140//3 120//3 119//3
f 119//3 118//3 121//3 122//3
f 114//3 113//3 123//3 124//3
f 123//3 113//3 125//3 126//3
f 112//3 111//3 116//3 115//3
f 113//3 116//3 127//3 128//3
f 128//3 127//3 129//3 130//3
f 130//3 129//3 131//3 132//3
f 12//4 28//4 86//4 80//4
f 60//5 62//5 127//5 116//5
f 13//5 9//5 77//5 81//5
f 32//4 38//4 106//4 100//4
f 28//2 48//2 98//2 86//2
f 58//2 55//2 123//2 126//2
f 7//2 8//2 76//2 75//2
f 6//5 17//5 73//5 72//5
f 3//6 1//6 68//6 67//6
f 53//4 54//4 122//4 121//4
f 14//2 11//2 79//2 82//2
f 20//6 24//6 92//6 87//6
f 45//5 57//5 125//5 113//5
f 25//2 34//2 102//2 93//2
f 9//4 2//4 69//4 77//4
f 2//2 18//2 74//2 69//2
f 44//4 42//4 109//4 112//4
f 30//4 29//4 96//4 95//4
f 54//5 51//5 119//5 122//5
f 63//2 61//2 128//2 130//2
f 50//2 49//2 118//2 117//2
f 46//4 59//4 115//4 114//4
f 10//6 7//6 75//6 78//6
f 40//6 43//6 111//6 107//6
f 47//5 15//5 83//5 97//5
f 49//2 53//2 121//2 118//2
f 62//5 64//5 129//5 127//5
f 8//2 14//2 82//2 76//2
f 39//5 35//5 103//5 108//5
f 137//4 30//4 95//4 139//4
f 43//6 60//6 116//6 111//6
f 35//5 36//5 104//5 103//5
f 19//5 20//5 87//5 88//5
f 55//2 56//2 124//2 123//2
f 4//5 3//5 67//5 70//5
f 66//6 65//6 132//6 131//6
f 38//2 40//2 107//2 106//2
f 26//2 23//2 91//2 94//2
f 52//6 50//6 117//6 120//6
f 1//6 10//6 78//6 68//6
f 37//6 33//6 101//6 105//6
f 22//2 21//2 90//2 89//2
f 59//4 44//4 112//4 115//4
f 56//4 46//4 114//4 124//4
f 5//4 6//4 72//4 71//4
f 31//4 32//4 100//4 99//4
f 65//2 63//2 130//2 132//2
f 15//5 16//5 84//5 83//5
f 42//4 41//4 110//4 109//4
f 21//2 25//2 93//2 90//2
f 23//4 19//4 88//4 91//4
f 17//5 4//5 70//5 73//5
f 33//5 26//5 94//5 101//5
f 64//5 66//5 131//5 129//5
f 27//6 13//6 81//6 85//6
f 41//5 39//5 108//5 110//5
f 138//6 52//6 120//6 140//6
f 16//6 27//6 85//6 84//6
f 61//2 45//2 113//2 128//2
f 11//4 12//4 80//4 79//4
f 36//6 37//6 105//6 104//6
f 24//6 22//6 89//6 92//6
f 29//5 47//5 97//5 96//5
f 57//6 58//6 126//6 125//6
f 18//2 5//2 71//2 74//2
f 34//2 31//2 99//2 102//2
f 141//2 134//2 136//2 142//2
f 48//6 138//6 140//6 98//6
f 51//4 137//4 139//4 119//4
f 95//3 98//3 140//3 139//3
f 30//1 137//1 138//1 48//1
f 190//3 147//3 170//3 194//3
f 144//7 143//7 145//7 146//7
f 147//3 151//3 184//3 182//3
f 196//4 199//4 149//4 150//4
f 149//3 135//3 161//3 164//3
f 154//3 156//3 228//3 226//3
f 158//3 154//3 230//3 232//3
f 157//6 159//6 160//6 158//6
f 156//2 160//2 240//2 237//2
f 163//2 164//2 161//2 162//2
f 133//1 150//1 163//1 162//1
f 163//1 150//1 173//1 175//1
f 133//1 162//1 168//1 166//1
f 165//6 166//6 168//6 167//6
f 161//3 135//3 165//3 167//3
f 162//2 161//2 167//2 168//2
f 135//5 133//5 166//5 165//5
f 193//6 194//6 170//6 169//6
f 133//2 135//2 172//2 171//2
f 198//1 133//1 171//1 200//1
f 147//5 148//5 169//5 170//5
f 173//4 174//4 176//4 175//4
f 149//3 164//3 176//3 174//3
f 164//2 163//2 175//2 176//2
f 149//3 174//3 180//3 178//3
f 177//5 178//5 180//5 179//5
f 173//1 150//1 177//1 179//1
f 174//4 173//4 179//4 180//4
f 177//1 150//1 233//1 235//1
f 181//5 182//5 184//5 183//5
f 151//4 152//4 183//4 184//4
f 152//1 148//1 181//1 183//1
f 181//1 148//1 185//1 187//1
f 185//6 186//6 188//6 187//6
f 147//3 182//3 188//3 186//3
f 182//5 181//5 187//5 188//5
f 148//2 147//2 186//2 185//2
f 148//1 189//1 193//1 169//1
f 200//2 197//2 204//2 201//2
f 152//4 151//4 192//4 191//4
f 195//3 190//3 194//3 197//3
f 135//3 195//3 197//3 172//3
f 171//6 172//6 197//6 200//6
f 189//1 198//1 200//1 193//1
f 191//4 192//4 199//4 196//4
f 204//3 208//3 211//3 209//3
f 197//3 194//3 203//3 204//3
f 194//5 193//5 202//5 203//5
f 193//1 200//1 201//1 202//1
f 205//6 208//6 207//6 206//6
f 204//3 203//3 207//3 208//3
f 202//1 206//1 216//1 214//1
f 202//1 201//1 205//1 206//1
f 210//2 209//2 211//2 212//2
f 205//1 201//1 210//1 212//1
f 208//6 205//6 212//6 211//6
f 210//1 201//1 222//1 224//1
f 213//5 214//5 216//5 215//5
f 207//3 203//3 213//3 215//3
f 206//6 207//6 215//6 216//6
f 213//3 203//3 217//3 219//3
f 217//4 218//4 220//4 219//4
f 202//1 214//1 220//1 218//1
f 214//5 213//5 219//5 220//5
f 203//2 202//2 218//2 217//2
f 222//4 221//4 223//4 224//4
f 204//3 209//3 223//3 221//3
f 209//2 210//2 224//2 223//2
f 201//5 204//5 221//5 222//5
f 227//4 225//4 226//4 228//4
f 156//2 155//2 227//2 228//2
f 155//1 153//1 225//1 227//1
f 153//5 154//5 226//5 225//5
f 229//2 231//2 232//2 230//2
f 157//4 158//4 232//4 231//4
f 153//1 157//1 231//1 229//1
f 154//6 153//6 229//6 230//6
f 233//6 234//6 236//6 235//6
f 149//3 178//3 236//3 234//3
f 178//5 177//5 235//5 236//5
f 150//2 149//2 234//2 233//2
f 237//3 240//3 244//3 241//3
f 159//2 155//2 238//2 239//2
f 160//2 159//2 239//2 240//2
f 155//2 156//2 237//2 238//2
f 243//5 242//5 241//5 244//5
f 239//1 238//1 242//1 243//1
f 240//4 239//4 243//4 244//4
f 238//6 237//6 241//6 242//6
