# Blender v2.78 (sub 0) OBJ File: 'WallForDoor.blend'
# www.blender.org
mtllib WallForDoor.mtl
o Cube_Cube.001
v -15.000000 0.000000 0.106130
v -15.000000 15.564709 0.106130
v -15.000000 15.564709 -0.106130
v -15.000000 0.000000 -0.106130
v -1.000000 0.000000 -0.106130
v -1.000000 0.000000 0.106130
v 15.000000 0.000000 0.106130
v 15.000000 15.564709 0.106130
v -1.000000 5.000001 0.106130
v 1.000000 5.000001 0.106130
v 1.000000 3.875000 0.106130
v 1.000000 1.125001 0.106130
v 1.000000 0.000000 0.106130
v 15.000000 15.564709 -0.106130
v 15.000000 0.000000 -0.106130
v 1.000000 0.000000 -0.106130
v 1.000000 1.375001 -0.106130
v 1.000000 3.624999 -0.106130
v 1.000000 5.000001 -0.106130
v -1.000000 5.000001 -0.106130
vt 0.0000 0.0000
vt 0.0000 0.0000
vt 0.0000 0.0000
vt 0.0000 0.0000
vt 0.9630 0.0000
vt 0.0000 0.0000
vt 0.0000 0.0000
vt 0.0000 0.0000
vt 0.0000 0.0000
vt 0.0000 0.0000
vt 0.0000 0.0000
vt 0.0000 0.0000
vt 0.0000 0.0000
vt 0.0000 0.0000
vt 0.0000 0.0000
vt 0.0000 0.0000
vt 0.0000 0.0000
vt 0.0000 0.0000
vt 0.0000 0.0000
vt 0.0000 0.0000
vt 0.0000 0.0000
vt 0.9630 0.9569
vt 0.7965 0.6964
vt 0.7965 0.6957
vt 0.7962 0.6949
vt 0.7962 0.6956
vt 0.9817 0.4703
vt 0.9817 0.4703
vt 0.9813 0.4688
vt 0.9813 0.4688
vt 0.9444 0.4884
vt 0.9444 0.4884
vt 0.9447 0.4868
vt 0.9447 0.4869
vt 0.9444 0.4884
vt 0.9447 0.4869
vt 0.9447 0.4869
vt 0.9444 0.4884
vn -1.0000 0.0000 0.0000
vn 0.0000 -1.0000 0.0000
vn 0.0000 0.0000 1.0000
vn 0.0000 1.0000 0.0000
vn 0.0000 0.0000 -1.0000
vn 1.0000 0.0000 0.0000
usemtl None
s off
f 1/1/1 2/2/1 3/3/1 4/4/1
f 4/4/2 5/5/2 6/6/2 1/1/2
f 7/7/3 8/8/3 2/2/3 1/1/3 6/6/3 9/9/3 10/10/3 11/11/3 12/12/3 13/13/3
f 14/14/4 3/3/4 2/2/4 8/8/4
f 4/4/5 3/3/5 14/14/5 15/15/5 16/16/5 17/17/5 18/18/5 19/19/5 20/20/5 5/21/5
f 16/16/2 15/15/2 7/7/2 13/22/2
f 15/15/6 14/14/6 8/8/6 7/7/6
f 20/23/2 19/24/2 10/25/2 9/26/2
f 9/27/6 6/28/6 5/29/6 20/30/6
f 19/31/1 18/32/1 11/33/1 10/34/1
f 18/32/1 17/35/1 12/36/1 11/33/1
f 13/37/1 12/36/1 17/35/1 16/38/1
